<?xml version="1.0" encoding="utf-8"?>
<!-- Generator: Adobe Illustrator 18.1.0, SVG Export Plug-In . SVG Version: 6.00 Build 0)  -->
<svg version="1.1" id="Layer_1" xmlns="http://www.w3.org/2000/svg" xmlns:xlink="http://www.w3.org/1999/xlink" x="0px" y="0px"
	 viewBox="0 0 1024 1024" enable-background="new 0 0 1024 1024" xml:space="preserve">
<rect fill="#FFFFFF" width="1024" height="1024"/>
<g>
	<rect x="363.9" fill="#CF0A2C" width="277.9" height="260.5"/>
	<g>
		<polygon fill="#FFFFFF" points="398.1,122.3 414.7,122.3 417.1,113 388.7,113 381.7,146.8 392.8,146.9 392.9,146.7 395.5,134.9 
			409.4,134.8 411.2,126.2 397.3,126.2 		"/>
		<path fill="#FFFFFF" d="M490.8,114.6l-10.1,0L479,122l-3.5,0l-1.3,6.3l3.4,0c-0.2,1-1.1,5.3-1.5,7.6v0c-0.3,1.9-0.9,4-0.9,6
			c0,0.7,0.1,1.5,0.3,2.2v0l0,0c0.5,1.1,1.7,1.8,3.2,2.2c1.4,0.4,3.1,0.6,4.7,0.6c1.2,0,2.2-0.1,3.1-0.2c0.4-0.1,0.8-0.2,1.2-0.3
			c0.3-0.1,0.6-0.2,0.8-0.3l0.1,0l0-0.1c0.4-2.2,1.1-4.5,1.2-6.7l0-0.2l-0.3,0.1c-0.5,0.2-1.2,0.3-1.8,0.3c-0.4,0-0.8,0-1.1-0.1
			c-0.3-0.1-0.5-0.2-0.5-0.4c0.1-1.9,0.6-4.5,1.1-6.7c0.2-1.1,0.5-2.1,0.6-2.8c0.1-0.5,0.2-0.9,0.3-1l4.3,0l0-0.1l1.2-6.2l-4.2,0
			L490.8,114.6z"/>
		<path fill="#FFFFFF" d="M447.7,130.2l0-0.2l1.9-8.3l-0.2,0c-0.6-0.1-1.1-0.1-1.7-0.1c-2,0-3.9,0.6-5.5,1.7v0
			c-0.5,0.2-1.2,0.6-1.8,1c-0.3,0.2-0.5,0.3-0.7,0.5l0.4-2.5l-9.5,0l-5.2,24.8l9.9,0l0-0.1c0,0,0.2-0.8,0.4-2c0.4-1.8,1-4.6,1.6-7
			c0.3-1.2,0.6-2.3,0.8-3.2c0.1-0.4,0.2-0.8,0.3-1.1c0.1-0.3,0.2-0.5,0.2-0.6l0,0c1.5-2.1,3.8-2.9,6.5-2.9c0.7,0,1.4,0.1,2.1,0.2
			L447.7,130.2z"/>
		<polygon fill="#FFFFFF" points="429.4,113 419.7,113 419.6,113.1 418.1,119.7 427.9,119.7 		"/>
		<polygon fill="#FFFFFF" points="417.5,122.1 417.4,122.2 412.1,146.9 422.2,146.9 427.4,122.1 		"/>
		<path fill="#FFFFFF" d="M471.7,123.5c-4.5-2.3-11.8-2.1-16.6-0.5c0,0-2.1,0.8-3.2,1.9c-2.3,1.9-3.7,4.7-3.1,7.8
			c0.7,1.9,2.4,3.1,4.2,3.7c2.5,0.8,5.3,1.1,7.8,1.5c0.9,0.3,1.6,0.8,1.5,2.1c-0.4,0.7-0.7,1.2-1.5,1.4c-1.4,0.7-3.4,0.4-4.5-0.4
			c-0.8-0.5-0.9-2.5-0.9-2.5l-8.8,0c-0.6,1.7,0,3.8,0.7,5.2c2.5,3.1,7.7,3.6,7.7,3.6c5.6,0.5,11.8-0.2,15.4-4.5
			c1.7-2.1,2.7-5.7,1.2-8.4c-3-3.8-8.4-3.6-12.9-4.7l-0.5-0.4c-0.4-0.8,0.7-1.7,0.7-1.6c0.8-0.5,2.5-1,4.3-0.6
			c1,0.4,1.2,2.1,1.2,2.1l8.9,0C473.6,129.5,473.9,124.6,471.7,123.5z"/>
		<path fill="#FFFFFF" d="M541.2,114.1l-6.7,29.5l-6.1-30.6l-10.8,0.1l-20.2,33.9l11.3,0l3.1-5.2l10.8,0l1,5.2l20.7,0l7.2-32.9
			L541.2,114.1z M521.4,134h-5.1l4.1-7.5L521.4,134z"/>
		<path fill="#FFFFFF" d="M575.8,138.8h-10l0,0.1c-0.6,0.7-1.5,1.1-2.4,1.3c-0.9,0.2-1.7,0.2-2.4,0.2c-1,0-1.8-0.3-2.3-0.7
			c-0.6-0.4-0.9-1-0.9-1.7c0-0.3,0.1-0.7,0.3-1.1h18.2l0-0.1c0.3-1.4,0.4-2.7,0.4-3.9c0-3.7-1.3-6.6-3.5-8.6c-2.2-2-5.4-3.1-9.1-3.1
			c-0.1,0-0.2,0-0.3,0c-3.9,0.1-7.4,1.3-10.2,3.6c-2.8,2.3-4.7,5.6-5.4,9.7c-0.1,0.9-0.2,1.7-0.2,2.5c0,3.5,1.3,6.1,3.5,7.9
			c2.2,1.8,5.3,2.6,8.8,2.6c2.9,0,6.1-0.7,8.9-2.1c2.8-1.4,5.2-3.4,6.3-6.2L575.8,138.8z M566.5,131.3H559c0.2-0.7,0.7-1.4,1.4-1.9
			c0.8-0.6,1.9-1,3.1-1c0.1,0,0.3,0,0.4,0c1.5,0.1,2.7,1.2,2.7,2.6C566.5,131.1,566.5,131.2,566.5,131.3z"/>
		<path fill="#FFFFFF" d="M622.9,114c-0.7-0.7-1.6-1.1-2.6-1.1c-1,0-2,0.4-2.7,1.1c-0.7,0.7-1.1,1.6-1.1,2.7c0,1.1,0.4,2,1.1,2.7
			c0.7,0.7,1.6,1.1,2.7,1.1c1,0,2-0.4,2.6-1.1c0.7-0.7,1.1-1.6,1.1-2.7C624,115.6,623.6,114.7,622.9,114z M622.1,118.7l-1.1-1.7
			c0.2-0.1,0.5-0.1,0.6-0.3c0.2-0.2,0.4-0.5,0.4-0.9c0-0.4-0.1-0.8-0.4-1c-0.3-0.2-0.7-0.3-1.2-0.3h-1.7v4.5h1v-0.2v-1.6h0.4
			l1.1,1.8h0.6c-0.4,0.3-1,0.5-1.6,0.5c-1.5,0-2.7-1.2-2.7-2.8c0-1.6,1.2-2.8,2.7-2.8c1.5,0,2.7,1.2,2.7,2.8
			C622.9,117.5,622.6,118.2,622.1,118.7z M621,115.8c0,0.1,0,0.2-0.1,0.3c-0.1,0.1-0.1,0.1-0.3,0.2c-0.1,0-0.3,0-0.5,0h-0.6v-0.9
			h0.7c0.2,0,0.4,0,0.5,0.1c0.1,0,0.1,0.1,0.1,0.1C621,115.6,621,115.7,621,115.8z"/>
		<path fill="#FFFFFF" d="M614.9,114.6h-0.2l-9.8,0l-1.8,7.4l-3.5,0l-1.3,6.3l3.4,0c-0.2,1-1.1,5.3-1.5,7.6v0c-0.3,1.9-0.9,4-0.9,6
			c0,0.7,0.1,1.5,0.3,2.2l0,0c0.1,0.6,0.5,1,1,1.4c1.5,1.1,4.3,1.5,6.8,1.5c1.2,0,2.3-0.1,3.2-0.2c0.5-0.1,0.9-0.2,1.2-0.2
			c0.3-0.1,0.6-0.2,0.8-0.3l0.1,0l0-0.1c0.4-2.2,1.1-4.5,1.2-6.7l0-0.3l-0.3,0.1c-0.5,0.2-1.2,0.3-1.8,0.3c-0.4,0-0.8,0-1.1-0.1
			c-0.3-0.1-0.5-0.2-0.5-0.4c0.1-1.9,0.6-4.5,1.1-6.7c0.2-1.1,0.5-2.1,0.7-2.8c0.1-0.5,0.2-0.9,0.2-1l4.3,0l1.2-6.3l-4.2,0
			L614.9,114.6z"/>
		<path fill="#FFFFFF" d="M598.9,121.7c-0.6-0.1-1.1-0.1-1.7-0.1c-2,0-3.9,0.6-5.5,1.7l0,0c-0.5,0.2-1.2,0.6-1.8,1
			c-0.3,0.2-0.5,0.3-0.7,0.5l0.4-2.5l-9.5,0l-5.2,24.8l9.9,0l0-0.1c0,0,0.2-0.8,0.4-2c0.4-1.8,1-4.6,1.6-7c0.3-1.2,0.6-2.3,0.8-3.2
			c0.1-0.4,0.2-0.8,0.3-1.1c0.1-0.3,0.2-0.5,0.2-0.6v0c1.5-2.1,3.8-2.9,6.5-2.9c0.7,0,1.4,0.1,2.1,0.2l0.2,0l0-0.2l1.9-8.3
			L598.9,121.7z"/>
	</g>
</g>
<g>
	<path fill="#58595B" d="M139.1,572.4c-59.5,0-104.4-46.5-104.4-108.2v-0.6c0-61.7,44.9-108.2,104.4-108.2
		c59.5,0,104.4,46.5,104.4,108.2v0.6C243.5,525.9,198.6,572.4,139.1,572.4z M138.8,366.6c-52.7,0-92.4,41.6-92.4,96.7v0.6
		c0,47.8,34.8,97.3,92.9,97.3c52.6,0,92.4-41.6,92.4-96.7v-0.6C231.8,416.1,197,366.6,138.8,366.6z"/>
	<path fill="#58595B" d="M491.2,572.4c-40.5,0-70-30.8-70-73.2v-0.5c0-41.4,28.9-72.7,67.3-72.7c42.4,0,64.6,37.1,64.6,73.7v3.7
		H432.8c2.1,34.5,25.9,58.3,58.6,58.3c21.4,0,38.7-13.5,47.7-26.1l1.5-2.1l8.9,6.2l-1.5,2.2C534.6,561.2,513.9,572.4,491.2,572.4z
		 M541.5,493c-2.1-28.5-20.6-56.4-53.2-56.4c-30.5,0-53,23-55.4,56.4H541.5z"/>
	<rect x="589.3" y="370.5" fill="#58595B" width="10.9" height="201.9"/>
	<polygon fill="#58595B" points="941.9,572.4 868.2,504.5 868.2,572.4 856.5,572.4 856.5,355.7 868.2,355.7 868.2,491.6 
		934.4,432.6 951.4,432.6 877.4,497.6 959.4,572.4 	"/>
	<g>
		<rect x="648.4" y="432.4" fill="#58595B" width="10.9" height="139.9"/>
		<path fill="#58595B" d="M653.9,419.7c-4,0-7.3-3.3-7.3-7.3c0-4,3.3-7.3,7.3-7.3c4,0,7.3,3.3,7.3,7.3
			C661.2,416.4,657.9,419.7,653.9,419.7z"/>
	</g>
	<path fill="#58595B" d="M374.2,572.4v-84.9c0-28.3-19.8-49.6-46-49.6c-26.2,0-46,21.3-46,49.6v84.9h-10.7v-86.4
		c0-33.7,23.8-58.2,56.7-58.2c32.8,0,56.7,24.5,56.7,58.2v86.4H374.2z"/>
	<path fill="#58595B" d="M805.1,572.4v-84.9c0-28.3-19.8-49.6-46-49.6c-26.2,0-46,21.3-46,49.6v84.9h-10.7v-86.4
		c0-33.7,23.8-58.2,56.7-58.2c32.9,0,56.7,24.5,56.7,58.2v86.4H805.1z"/>
	<g>
		<path fill="#58595B" d="M977,565.1L977,565.1c0-4,3.2-7.3,7.3-7.3s7.3,3.3,7.3,7.2v0c0,4-3.2,7.3-7.3,7.3S977,569.1,977,565.1z
			 M990.9,565.1L990.9,565.1c0-3.7-2.8-6.7-6.6-6.7c-3.8,0-6.6,3-6.6,6.7v0c0,3.6,2.8,6.6,6.6,6.6
			C988,571.7,990.9,568.7,990.9,565.1z M981.4,561.1h3.3c0.9,0,1.7,0.3,2.2,0.8c0.4,0.3,0.6,0.8,0.6,1.5v0c0,1.2-0.8,1.9-1.9,2.2
			l2.3,3h-1.4l-2.2-2.8h0h-1.9v2.8h-1.1V561.1z M984.7,564.8c1,0,1.8-0.5,1.8-1.3v0c0-0.8-0.7-1.3-1.7-1.3h-2.2v2.7H984.7z"/>
	</g>
</g>
</svg>
