<?xml version="1.0" encoding="utf-8"?>
<!-- Generator: Adobe Illustrator 18.1.0, SVG Export Plug-In . SVG Version: 6.00 Build 0)  -->
<svg version="1.1" id="Layer_1" xmlns="http://www.w3.org/2000/svg" xmlns:xlink="http://www.w3.org/1999/xlink" x="0px" y="0px"
	 viewBox="0 0 400 400" enable-background="new 0 0 400 400" xml:space="preserve">
<g>
	<rect x="153.6" y="92" fill="#CF202E" width="84.1" height="78.8"/>
	<g>
		<polygon fill="#FFFFFF" points="164,129 169,129 169.7,126.2 161.1,126.2 159,136.4 162.4,136.5 162.4,136.4 163.2,132.8 
			167.4,132.8 167.9,130.2 163.7,130.2 		"/>
		<path fill="#FFFFFF" d="M192,126.7l-3,0l-0.5,2.2l-1.1,0l-0.4,1.9l1,0c-0.1,0.3-0.3,1.6-0.5,2.3v0c-0.1,0.6-0.3,1.2-0.3,1.8
			c0,0.2,0,0.4,0.1,0.7l0,0l0,0c0.2,0.3,0.5,0.5,1,0.7c0.4,0.1,1,0.2,1.4,0.2c0.3,0,0.7,0,0.9-0.1c0.1,0,0.3,0,0.3-0.1
			c0.1,0,0.2-0.1,0.2-0.1l0,0l0,0c0.1-0.7,0.3-1.4,0.4-2l0-0.1l-0.1,0c-0.2,0.1-0.4,0.1-0.5,0.1c-0.1,0-0.2,0-0.3,0
			c-0.1,0-0.1-0.1-0.2-0.1c0-0.6,0.2-1.4,0.3-2c0.1-0.3,0.1-0.6,0.2-0.9c0-0.2,0.1-0.3,0.1-0.3l1.3,0l0,0l0.4-1.9l-1.3,0L192,126.7z
			"/>
		<path fill="#FFFFFF" d="M179,131.4L179,131.4l0.6-2.6l-0.1,0c-0.2,0-0.3,0-0.5,0c-0.6,0-1.2,0.2-1.7,0.5l0,0
			c-0.2,0.1-0.4,0.2-0.5,0.3c-0.1,0.1-0.2,0.1-0.2,0.1l0.1-0.8l-2.9,0l-1.6,7.5l3,0l0,0c0,0,0.1-0.2,0.1-0.6
			c0.1-0.6,0.3-1.4,0.5-2.1c0.1-0.4,0.2-0.7,0.3-1c0-0.1,0.1-0.2,0.1-0.3c0-0.1,0.1-0.1,0.1-0.2l0,0c0.5-0.6,1.2-0.9,2-0.9
			C178.5,131.3,178.7,131.4,179,131.4L179,131.4z"/>
		<polygon fill="#FFFFFF" points="173.4,126.2 170.5,126.2 170.5,126.2 170,128.2 173,128.2 		"/>
		<polygon fill="#FFFFFF" points="169.8,129 169.8,129 168.2,136.5 171.3,136.5 172.8,129 		"/>
		<path fill="#FFFFFF" d="M186.3,129.4c-1.4-0.7-3.6-0.6-5-0.1c0,0-0.6,0.2-1,0.6c-0.7,0.6-1.1,1.4-0.9,2.4c0.2,0.6,0.7,0.9,1.3,1.1
			c0.7,0.2,1.6,0.3,2.4,0.5c0.3,0.1,0.5,0.2,0.4,0.6c-0.1,0.2-0.2,0.4-0.4,0.4c-0.4,0.2-1,0.1-1.4-0.1c-0.2-0.1-0.3-0.8-0.3-0.8
			l-2.7,0c-0.2,0.5,0,1.1,0.2,1.6c0.8,0.9,2.3,1.1,2.3,1.1c1.7,0.2,3.6,0,4.7-1.4c0.5-0.6,0.8-1.7,0.4-2.5c-0.9-1.1-2.5-1.1-3.9-1.4
			l-0.1-0.1c-0.1-0.2,0.2-0.5,0.2-0.5c0.2-0.1,0.7-0.3,1.3-0.2c0.3,0.1,0.4,0.7,0.4,0.7l2.7,0C186.8,131.2,186.9,129.7,186.3,129.4z
			"/>
		<path fill="#FFFFFF" d="M207.3,126.5l-2,8.9l-1.8-9.3l-3.3,0l-6.1,10.3l3.4,0l0.9-1.6l3.3,0l0.3,1.6l6.3,0l2.2-9.9L207.3,126.5z
			 M201.3,132.6h-1.5l1.2-2.3L201.3,132.6z"/>
		<path fill="#FFFFFF" d="M217.8,134h-3l0,0c-0.2,0.2-0.5,0.3-0.7,0.4c-0.3,0.1-0.5,0.1-0.7,0.1c-0.3,0-0.5-0.1-0.7-0.2
			c-0.2-0.1-0.3-0.3-0.3-0.5c0-0.1,0-0.2,0.1-0.3h5.5l0,0c0.1-0.4,0.1-0.8,0.1-1.2c0-1.1-0.4-2-1.1-2.6c-0.7-0.6-1.6-0.9-2.8-0.9
			c0,0-0.1,0-0.1,0c-1.2,0-2.2,0.4-3.1,1.1c-0.8,0.7-1.4,1.7-1.6,2.9c0,0.3-0.1,0.5-0.1,0.8c0,1.1,0.4,1.9,1.1,2.4
			c0.7,0.5,1.6,0.8,2.7,0.8c0.9,0,1.8-0.2,2.7-0.6C216.6,135.5,217.4,134.9,217.8,134L217.8,134z M214.9,131.7h-2.3
			c0.1-0.2,0.2-0.4,0.4-0.6c0.3-0.2,0.6-0.3,0.9-0.3c0,0,0.1,0,0.1,0C214.6,130.9,214.9,131.2,214.9,131.7
			C214.9,131.7,214.9,131.7,214.9,131.7z"/>
		<path fill="#FFFFFF" d="M232,126.5c-0.2-0.2-0.5-0.3-0.8-0.3c-0.3,0-0.6,0.1-0.8,0.3c-0.2,0.2-0.3,0.5-0.3,0.8
			c0,0.3,0.1,0.6,0.3,0.8c0.2,0.2,0.5,0.3,0.8,0.3c0.3,0,0.6-0.1,0.8-0.3c0.2-0.2,0.3-0.5,0.3-0.8C232.3,127,232.2,126.7,232,126.5z
			 M231.8,127.9l-0.3-0.5c0.1,0,0.1,0,0.2-0.1c0.1-0.1,0.1-0.2,0.1-0.3c0-0.1,0-0.2-0.1-0.3c-0.1-0.1-0.2-0.1-0.4-0.1h-0.5v1.4h0.3
			v-0.1v-0.5h0.1l0.3,0.5h0.2c-0.1,0.1-0.3,0.2-0.5,0.2c-0.5,0-0.8-0.4-0.8-0.8c0-0.5,0.4-0.8,0.8-0.8c0.5,0,0.8,0.4,0.8,0.8
			C232,127.6,231.9,127.8,231.8,127.9z M231.4,127C231.4,127.1,231.4,127.1,231.4,127c0,0.1-0.1,0.1-0.1,0.1c0,0-0.1,0-0.2,0H231
			v-0.3h0.2C231.3,126.9,231.3,126.9,231.4,127C231.4,126.9,231.4,127,231.4,127C231.4,127,231.4,127,231.4,127z"/>
		<path fill="#FFFFFF" d="M229.6,126.7L229.6,126.7l-3,0l-0.5,2.2l-1.1,0l-0.4,1.9l1,0c-0.1,0.3-0.3,1.6-0.5,2.3v0
			c-0.1,0.6-0.3,1.2-0.3,1.8c0,0.2,0,0.4,0.1,0.7l0,0c0,0.2,0.2,0.3,0.3,0.4c0.5,0.3,1.3,0.4,2.1,0.4c0.4,0,0.7,0,1-0.1
			c0.1,0,0.3,0,0.4-0.1c0.1,0,0.2-0.1,0.2-0.1l0,0l0,0c0.1-0.7,0.3-1.4,0.4-2l0-0.1l-0.1,0c-0.2,0.1-0.4,0.1-0.5,0.1
			c-0.1,0-0.2,0-0.3,0c-0.1,0-0.1-0.1-0.2-0.1c0-0.6,0.2-1.4,0.3-2c0.1-0.3,0.1-0.6,0.2-0.9c0-0.2,0.1-0.3,0.1-0.3l1.3,0l0.4-1.9
			l-1.3,0L229.6,126.7z"/>
		<path fill="#FFFFFF" d="M224.7,128.8c-0.2,0-0.3,0-0.5,0c-0.6,0-1.2,0.2-1.7,0.5v0c-0.2,0.1-0.4,0.2-0.5,0.3
			c-0.1,0.1-0.2,0.1-0.2,0.1l0.1-0.8l-2.9,0l-1.6,7.5l3,0l0,0c0,0,0.1-0.2,0.1-0.6c0.1-0.6,0.3-1.4,0.5-2.1c0.1-0.4,0.2-0.7,0.2-1
			c0-0.1,0.1-0.2,0.1-0.3c0-0.1,0.1-0.1,0.1-0.2v0c0.5-0.6,1.2-0.9,2-0.9c0.2,0,0.4,0,0.6,0l0,0l0,0L224.7,128.8L224.7,128.8z"/>
	</g>
</g>
<g>
	<path fill="#58595B" d="M86,265.2c-18,0-31.6-14.1-31.6-32.7v-0.2c0-18.7,13.6-32.7,31.6-32.7c18,0,31.6,14.1,31.6,32.7v0.2
		C117.6,251.1,104,265.2,86,265.2z M85.9,203C70,203,58,215.5,58,232.2v0.2c0,14.5,10.5,29.4,28.1,29.4c15.9,0,27.9-12.6,27.9-29.3
		v-0.2C114.1,217.9,103.5,203,85.9,203z"/>
	<path fill="#58595B" d="M192.5,265.2c-12.3,0-21.2-9.3-21.2-22.1v-0.2c0-12.5,8.8-22,20.4-22c12.8,0,19.5,11.2,19.5,22.3v1.1h-36.4
		c0.6,10.4,7.8,17.6,17.7,17.6c6.5,0,11.7-4.1,14.4-7.9l0.5-0.6l2.7,1.9l-0.5,0.7C205.7,261.9,199.4,265.2,192.5,265.2z
		 M207.8,241.2c-0.6-8.6-6.2-17.1-16.1-17.1c-9.2,0-16,7-16.8,17.1H207.8z"/>
	<rect x="222.2" y="204.1" fill="#58595B" width="3.3" height="61.1"/>
	<polygon fill="#58595B" points="328.9,265.2 306.6,244.7 306.6,265.2 303.1,265.2 303.1,199.7 306.6,199.7 306.6,240.8 
		326.6,222.9 331.8,222.9 309.4,242.6 334.2,265.2 	"/>
	<g>
		<rect x="240.1" y="222.9" fill="#58595B" width="3.3" height="42.3"/>
		<circle fill="#58595B" cx="241.8" cy="216.8" r="2.2"/>
	</g>
	<path fill="#58595B" d="M157.1,265.2v-25.7c0-8.6-6-15-13.9-15c-7.9,0-13.9,6.5-13.9,15v25.7h-3.2v-26.1c0-10.2,7.2-17.6,17.2-17.6
		c9.9,0,17.2,7.4,17.2,17.6v26.1H157.1z"/>
	<path fill="#58595B" d="M287.5,265.2v-25.7c0-8.6-6-15-13.9-15c-7.9,0-13.9,6.5-13.9,15v25.7h-3.2v-26.1c0-10.2,7.2-17.6,17.1-17.6
		c9.9,0,17.2,7.4,17.2,17.6v26.1H287.5z"/>
	<g>
		<path fill="#58595B" d="M341.5,262.6h-1v-0.4h2.4v0.4h-1v2.6h-0.4V262.6z M343.5,262.2h0.5l1.1,1.7l1.1-1.7h0.5v3.1h-0.4v-2.3
			l-1.1,1.7h-0.1l-1.1-1.7v2.3h-0.4V262.2z"/>
	</g>
</g>
</svg>
