<?xml version="1.0" encoding="utf-8"?>
<!-- Generator: Adobe Illustrator 18.1.0, SVG Export Plug-In . SVG Version: 6.00 Build 0)  -->
<svg version="1.1" id="Layer_1" xmlns="http://www.w3.org/2000/svg" xmlns:xlink="http://www.w3.org/1999/xlink" x="0px" y="0px"
	 viewBox="0 0 47 43.4" enable-background="new 0 0 47 43.4" xml:space="preserve">
<g>
	<g>
		<path fill="#FFFFFF" d="M20.8,13.3h-3.1c-0.6,0-1,0.5-1,1V29c0,0.6,0.5,1,1,1h3.1c0.6,0,1-0.5,1-1V14.4
			C21.8,13.8,21.4,13.3,20.8,13.3z"/>
		<path fill="#FFFFFF" d="M31.2,13.3h-3.1c-0.6,0-1,0.5-1,1V29c0,0.6,0.5,1,1,1h3.1c0.6,0,1-0.5,1-1V14.4
			C32.3,13.8,31.8,13.3,31.2,13.3z"/>
	</g>
</g>
</svg>
