<?xml version="1.0" encoding="utf-8"?>
<!-- Generator: Adobe Illustrator 18.1.0, SVG Export Plug-In . SVG Version: 6.00 Build 0)  -->
<svg version="1.1" id="Layer_1" xmlns="http://www.w3.org/2000/svg" xmlns:xlink="http://www.w3.org/1999/xlink" x="0px" y="0px"
	 viewBox="0 0 47 43.4" enable-background="new 0 0 47 43.4" xml:space="preserve">
<path fill="#40C2CD" d="M30.5,32.4c-0.1,0-0.1,0-0.2-0.1l-3.8-3.8h-3c-7.6,0-13.5-3.8-13.5-8.6c0-5,5.9-8.8,13.5-8.8
	c7.6,0,13.5,3.9,13.5,8.8c0,2.9-2.1,5.5-5.7,7.2l-0.5,0.2v4.8c0,0.1-0.1,0.2-0.2,0.2C30.6,32.4,30.5,32.4,30.5,32.4z M23.5,11.6
	c-3.3,0-6.5,0.8-9,2.3c-2.6,1.6-4,3.7-4,6c0,2.2,1.4,4.3,4,5.8c2.4,1.4,5.6,2.2,9,2.2h3.1c0,0,0.1,0,0.1,0c0,0,0.1,0,0.1,0.1
	l3.4,3.4v-4.3c0-0.1,0-0.2,0.1-0.2c0,0,0.1,0,0.1-0.1c3.8-1.5,6-4.1,6-7c0-2.3-1.4-4.4-4-6C30,12.4,26.8,11.6,23.5,11.6z"/>
</svg>
