<?xml version="1.0" encoding="utf-8"?>
<!-- Generator: Adobe Illustrator 18.1.0, SVG Export Plug-In . SVG Version: 6.00 Build 0)  -->
<svg version="1.1" id="Layer_1" xmlns="http://www.w3.org/2000/svg" xmlns:xlink="http://www.w3.org/1999/xlink" x="0px" y="0px"
	 viewBox="0 0 47 43.4" enable-background="new 0 0 47 43.4" xml:space="preserve">
<g>
	<path fill="none" stroke="#40C2CD" d="M34.8,28.2c0-0.4-0.1-0.7-0.4-0.9l0,0c-0.9-1-2.7-2.1-3.8-2.7c-0.1,0-0.1-0.1-0.1-0.1
		c-0.2-0.1-0.4-0.1-0.6-0.1c-0.3,0-0.5,0.1-0.7,0.2l0,0c-0.5,0.3-1,0.7-1.5,1.1c-0.1,0.1-0.2,0.2-0.3,0.2c-0.2,0.1-0.4,0.1-0.6,0.1
		c-0.2,0-0.3,0-0.5-0.1l0,0c-0.1,0-0.2-0.1-0.3-0.2c-0.9-0.5-1.9-1.4-2.8-2.3s-1.8-2-2.3-2.8c-0.1-0.1-0.1-0.2-0.2-0.3l0,0
		c-0.1-0.2-0.1-0.3-0.1-0.5c0-0.2,0-0.4,0.1-0.6c0.1-0.1,0.1-0.2,0.2-0.3c0.3-0.5,0.8-1,1.1-1.5h0c0.1-0.2,0.2-0.5,0.2-0.7
		c0-0.2,0-0.4-0.1-0.6c0,0-0.1-0.1-0.1-0.1c-0.7-1.2-1.8-2.9-2.7-3.8l0,0c-0.2-0.2-0.6-0.4-0.9-0.4c-0.2,0-0.4,0.1-0.6,0.2l0,0
		c-0.7,0.4-1.6,1.2-2.2,1.9c-0.1,0.1-0.2,0.2-0.2,0.3c-0.2,0.4-0.4,0.8-0.4,1.3c0,0.2,0,0.4,0.1,0.6v0c0,0.1,0,0.2,0.1,0.2
		c0.9,2.9,3.2,6.2,6,9s6.1,5.1,9,6c0.1,0,0.2,0.1,0.2,0.1h0c0.2,0,0.4,0.1,0.6,0.1c0.5,0,0.9-0.1,1.3-0.4c0.1-0.1,0.2-0.1,0.3-0.2
		l0,0c0.8-0.6,1.5-1.4,1.9-2.2l0,0C34.7,28.6,34.8,28.4,34.8,28.2z"/>
</g>
</svg>
