<?xml version="1.0" encoding="utf-8"?>
<!-- Generator: Adobe Illustrator 18.1.0, SVG Export Plug-In . SVG Version: 6.00 Build 0)  -->
<svg version="1.1" id="Layer_1" xmlns="http://www.w3.org/2000/svg" xmlns:xlink="http://www.w3.org/1999/xlink" x="0px" y="0px"
	 viewBox="0 0 153.6 174.6" enable-background="new 0 0 153.6 174.6" xml:space="preserve">
<g>
	<path fill="#555759" d="M120.2,169.7H26.5c-11.7,0-21.5-9.5-21.8-21.2c-1-40.1-1-80.7,0-120.7C5,16,14.8,6.5,26.5,6.5h93.7
		c11.7,0,21.5,9.5,21.8,21.2c1,40.1,1,80.7,0,120.7C141.7,160.2,131.9,169.7,120.2,169.7z M26.5,13.8c-7.8,0-14.3,6.3-14.5,14.1
		c-1,39.9-1,80.4,0,120.4c0.2,7.8,6.7,14.1,14.5,14.1h93.7c7.8,0,14.3-6.3,14.5-14.1c1-39.9,1-80.4,0-120.4
		c-0.2-7.8-6.7-14.1-14.5-14.1H26.5z"/>
</g>
<g>
	<path fill="#CF202F" d="M122.2,153.3c-32.4,0-64.7,0-97.1,0c-5.4,0-9.8-4.4-9.8-9.8c0-36.9,0-73.9,0-110.8c0-5.4,4.4-9.8,9.8-9.8
		c32.4,0,64.7,0,97.1,0c5.4,0,9.8,4.4,9.8,9.8c0,36.9,0,73.9,0,110.8C132,148.9,127.6,153.3,122.2,153.3z"/>
	<path fill="#555759" d="M122.2,155.1H25.1c-6.4,0-11.7-5.2-11.7-11.7V32.7c0-6.4,5.2-11.7,11.7-11.7h97.1c6.4,0,11.7,5.2,11.7,11.7
		v110.8C133.8,149.9,128.6,155.1,122.2,155.1z M25.1,24.7c-4.4,0-8,3.6-8,8v110.8c0,4.4,3.6,8,8,8h97.1c4.4,0,8-3.6,8-8V32.7
		c0-4.4-3.6-8-8-8H25.1z"/>
</g>
<g>
	<path fill="#555759" d="M140.1,105.8v-7.4c-0.3,0-0.6,0.3-0.6,0.6V77.2c0,0.3,0.3,0.6,0.6,0.6v-7.4c3.7,0,6.8,3,6.8,6.8V99
		C146.8,102.8,143.8,105.8,140.1,105.8z"/>
</g>
</svg>
