<?xml version="1.0" encoding="utf-8"?>
<!-- Generator: Adobe Illustrator 18.1.0, SVG Export Plug-In . SVG Version: 6.00 Build 0)  -->
<svg version="1.1" id="Layer_1" xmlns="http://www.w3.org/2000/svg" xmlns:xlink="http://www.w3.org/1999/xlink" x="0px" y="0px"
	 viewBox="0 0 792 612" enable-background="new 0 0 792 612" xml:space="preserve">
<g>
	<path fill="none" stroke="#CF202F" stroke-width="5" d="M555.3,397.7c0-5.6-1.4-9.9-5.6-12.7l0,0c-12.7-14.1-38.1-29.6-53.6-38.1
		c-1.4,0-1.4-1.4-1.4-1.4c-2.8-1.4-5.6-1.4-8.5-1.4c-4.2,0-7.1,1.4-9.9,2.8l0,0c-7.1,4.2-14.1,9.9-21.2,15.5
		c-1.4,1.4-2.8,2.8-4.2,2.8c-2.8,1.4-5.6,1.4-8.5,1.4c-2.8,0-4.2,0-7.1-1.4l0,0c-1.4,0-2.8-1.4-4.2-2.8
		c-12.7-7.1-26.8-19.7-39.5-32.4c-12.7-12.7-25.4-28.2-32.4-39.5c-1.4-1.4-1.4-2.8-2.8-4.2l0,0c-1.4-2.8-1.4-4.2-1.4-7.1
		c0-2.8,0-5.6,1.4-8.5c1.4-1.4,1.4-2.8,2.8-4.2c4.2-7.1,11.3-14.1,15.5-21.2l0,0c1.4-2.8,2.8-7.1,2.8-9.9c0-2.8,0-5.6-1.4-8.5
		l-1.4-1.4c-9.9-16.9-25.4-40.9-38.1-53.6l0,0c-2.8-2.8-8.5-5.6-12.7-5.6c-2.8,0-5.6,1.4-8.5,2.8l0,0c-9.9,5.6-22.6,16.9-31,26.8
		c-1.4,1.4-2.8,2.8-2.8,4.2c-2.8,5.6-5.6,11.3-5.6,18.3c0,2.8,0,5.6,1.4,8.5l0,0c0,1.4,0,2.8,1.4,2.8
		c12.7,40.9,45.1,87.4,84.6,126.9s86,71.9,126.9,84.6c1.4,0,2.8,1.4,2.8,1.4l0,0c2.8,0,5.6,1.4,8.5,1.4c7.1,0,12.7-1.4,18.3-5.6
		c1.4-1.4,2.8-1.4,4.2-2.8l0,0c11.3-8.5,21.2-19.7,26.8-31l0,0C553.9,403.3,555.3,400.5,555.3,397.7z"/>
</g>
</svg>
